<?xml version="1.0" encoding="UTF-8"?>
<svg id="b" data-name="Ebene 2" xmlns="http://www.w3.org/2000/svg" xmlns:xlink="http://www.w3.org/1999/xlink" viewBox="0 0 546.56 573.85">
  <defs>
    <linearGradient id="c" data-name="Unbenannter Verlauf 103" x1="56.13" y1="403.25" x2="547.26" y2="162.88" gradientUnits="userSpaceOnUse">
      <stop offset="0" stop-color="#2580c3"/>
      <stop offset=".21" stop-color="#0a67a6"/>
      <stop offset=".51" stop-color="#8be752"/>
      <stop offset="1" stop-color="#b7f347"/>
    </linearGradient>
    <linearGradient id="d" data-name="Unbenannter Verlauf 92" x1="337.4" y1="12.58" x2="429.45" y2="124.5" gradientUnits="userSpaceOnUse">
      <stop offset=".68" stop-color="#fff"/>
      <stop offset=".75" stop-color="#fcfcfc" stop-opacity=".99"/>
      <stop offset=".8" stop-color="#f4f4f4" stop-opacity=".96"/>
      <stop offset=".83" stop-color="#e5e5e5" stop-opacity=".9"/>
      <stop offset=".86" stop-color="#d1d1d1" stop-opacity=".82"/>
      <stop offset=".89" stop-color="#b7b7b7" stop-opacity=".72"/>
      <stop offset=".92" stop-color="#969696" stop-opacity=".59"/>
      <stop offset=".95" stop-color="#707070" stop-opacity=".44"/>
      <stop offset=".97" stop-color="#434343" stop-opacity=".26"/>
      <stop offset=".99" stop-color="#121212" stop-opacity=".07"/>
      <stop offset="1" stop-color="#000" stop-opacity="0"/>
    </linearGradient>
  </defs>
  <path d="M37.44,388.21c-24.98-65.23-23.16-138.7,6.24-202.83C97.08,68.87,226.37,8.92,348.43,51.55l-11.75-14.68C196.28-12.67,51.88,76.02,11.41,215.17-.24,255.25-2.84,296.64,3.02,337.79c13.8,97.03,77.66,179.91,168.39,216.96,107.19,43.77,232.48,14.13,308.21-73.36,46.72-53.97,71-123.53,66.69-194.96-3.68-60.87-28.99-126.76-75.15-166.63,40.44,52.2,62.57,114.91,55.09,181.89l-21.09-46.89c-15.17-33.74-31.66-66.04-51.05-97.72,9.07-13.35,7.1-31.57.44-45.86-7.73-16.61-25.04-22.91-42.4-19.18L356.94,5.64l-21.33-3.29,63.12,99.62c-5.87,9.9-6.83,20.18-.87,29.83,6.88,11.13,22.05,14.87,33.45,7.59-1.98-2.34-4.78-3.9-8.08-4.66-7.03-1.61-14.1-6.65-14.79-14.21-.72-7.95,6.12-13.65,12.51-15,7.36-1.56,14.73,2.65,18.36,9.43-8.37.06-14.33.5-21.88,2.22.29,4.9,3.92,7.26,9.01,6.98,5.83-.32,11.9,3.44,13.84,7.69,4.39,9.63-3.17,19.69-14.3,23.03l12.94,22.1c18.05,30.83,34.2,61.76,48.81,94.45,17.12,38.33,31.32,89.09,2.31,122.75-13.43,15.58-34.13,23.97-54.95,19.88-18.4-3.61-35.92-16.22-42.85-35.71,13.96,4.63,27.25,5.84,41.36,1.35-33.19-8.64-53.61-34.3-60.97-68.07-17.15,44.18-6.82,97.78,36.48,120.45,25.5,13.35,51.82,11.77,78.04,0-43.59,50.08-104.39,84.92-170.41,90.26-19.72,1.59-38.61-.46-57.66-5.02-30.91-7.41-57.19-23.15-79.91-45.43,13.06,20.18,31.35,35.16,52.43,46.45,30.62,16.4,64.07,22.21,98.8,20.06,20.6-1.27,39.03-6.89,59.43-11.68-34.22,17.04-72.24,24.61-110.49,23.8-32.68-.69-63.06-11.08-88.39-31.16-26.16-20.73-39.05-51.25-39.74-84.25-9.24,34.35.07,68.89,23.92,95.28-22.59-8.55-41.25-21.85-60.22-35.65-42.01-27.57-77.49-106.5-77.49-106.5Z" style="fill: url(#c);"/>
  <path d="M397.9,131.79l10.58-11.28c-.72-7.95,6.12-13.65,12.51-15,7.36-1.56,14.73,2.65,18.36,9.43l14.77,42.14c9.07-13.35,7.1-31.57.44-45.86-7.73-16.61-25.04-22.91-42.4-19.18L356.97,5.64l-21.33-3.29,63.12,99.62c-5.87,9.9-6.83,20.18-.87,29.83" style="fill: url(#d);"/>
</svg>